#N canvas 70 23 1210 751 10;
#X declare -stdpath cyclone;
#X obj 19 594 ggee/shell;
#X obj 19 685 print;
#X obj 7 -5 adc~;
#X obj 97 0 vu 15 120 empty empty -1 -8 0 10 -66577 -1 1 0;
#X obj 139 621 bng 15 250 50 0 empty empty empty 17 7 0 10 -262144
-1 -1;
#X text 82 706 return to waiting phase;
#X obj 7 47 env~ 1024;
#X floatatom 168 8 5 0 0 1 detect_threshold - -, f 5;
#X floatatom 191 28 5 0 0 1 minimum_hold_time - -, f 5;
#X text 96 147 start to click input button after detect;
#X text 69 476 mouse point;
#X obj 18 437 spigot;
#X obj 85 646 route end clicked, f 29;
#X obj 85 684 s endspeak;
#X obj 494 111 route Down;
#X obj 494 172 timer 100 msec;
#X obj 494 139 t b b, f 14;
#X floatatom 494 204 5 0 0 0 - - -, f 5;
#X floatatom 617 55 5 0 0 0 - - -, f 5;
#X obj 455 -9 keyname;
#X obj 494 54 cyclone/fromsymbol;
#X obj 494 82 spigot, f 21;
#X obj 494 232 < 2;
#X obj 494 254 sel 1;
#X obj 23 148 threshold~;
#X obj 7 99 sig~;
#X msg 168 113 set \$1 \$2 \$3 \$4;
#X obj 168 82 pack f f f f;
#X obj 7 73 - 100;
#X obj 24 183 bng 15 250 50 0 empty empty empty 17 7 0 10 -262144 -1
-1;
#X obj 163 266 bng 15 250 50 0 empty empty empty 17 7 0 10 -262144
-1 -1;
#X obj 7 21 hip~ 10;
#X floatatom 214 48 5 0 0 1 detect_threshold - -, f 5;
#X floatatom 236 65 5 0 0 1 minimum_hold_time - -, f 5;
#X obj 493 286 tgl 40 0 empty empty empty 17 7 0 10 -262144 -1 -1 0
1;
#X msg 19 526 osascript /Users/Tomoya/Geidai/ADM_speechscript/singleclick.scpt
\$1 \$2 \$3;
#X msg 160 480 142 46 1;
#X text 219 480 click "edit";
#X msg 306 481 183 348 1;
#X text 365 481 click "select all";
#X obj 304 456 delay 1000;
#X obj 834 634 declare -stdpath cyclone;
#X msg 762 507 osascript /Users/Tomoya/Geidai/ADM_speechscript/keyspeak.scpt
;
#X obj 160 428 spigot;
#X obj 163 182 t b b;
#X msg 188 205 stop;
#X obj 162 238 delay 700;
#X obj 159 213 bng 15 250 50 0 empty empty empty 17 7 0 10 -262144
-1 -1;
#X obj 730 195 delay 5000;
#X obj 730 -9 bng 30 250 50 0 empty empty Start 17 7 0 10 -258113 -261234
-1;
#X obj 183 685 bng 15 250 50 0 empty empty empty 17 7 0 10 -262144
-1 -1;
#X obj 19 359 spigot;
#X msg 109 334 1;
#X obj 74 358 tgl 15 0 empty empty empty 17 7 0 10 -262144 -1 -1 0
1;
#X msg 481 479 142 46 1;
#X text 540 479 click "edit";
#X text 679 477 click "copy";
#X msg 620 477 169 192 1;
#X msg 493 357 stop;
#X obj 481 453 delay 1500;
#X obj 620 451 delay 1500;
#X obj 761 481 delay 1700;
#X obj 104 301 delay 1000;
#X obj 157 363 spigot;
#X obj 195 348 tgl 15 0 empty empty empty 17 7 0 10 -262144 -1 -1 0
1;
#X obj 494 329 sel 0;
#X obj 99 278 r endspeak;
#X obj 160 454 delay 2200;
#X msg 18 476 1075 206 1;
#X msg 74 334 0;
#X msg 231 327 1;
#X msg 196 327 0;
#X obj 19 382 t b b b;
#X obj 158 388 t b b, f 6;
#X obj 164 -43 loadbang;
#X msg 165 -15 -29;
#X msg 192 -17 3000;
#X msg 229 -14 -46;
#X msg 259 -15 200;
#X connect 0 0 1 0;
#X connect 0 0 12 0;
#X connect 0 1 4 0;
#X connect 2 0 31 0;
#X connect 6 0 28 0;
#X connect 7 0 27 0;
#X connect 8 0 27 1;
#X connect 11 0 68 0;
#X connect 12 0 13 0;
#X connect 12 0 50 0;
#X connect 14 0 16 0;
#X connect 15 0 17 0;
#X connect 16 0 15 0;
#X connect 16 1 15 1;
#X connect 17 0 22 0;
#X connect 18 0 21 1;
#X connect 19 0 18 0;
#X connect 19 1 20 0;
#X connect 20 0 21 0;
#X connect 21 0 14 0;
#X connect 22 0 23 0;
#X connect 23 0 34 0;
#X connect 24 0 29 0;
#X connect 24 1 44 0;
#X connect 25 0 24 0;
#X connect 26 0 24 0;
#X connect 27 0 26 0;
#X connect 28 0 25 0;
#X connect 28 0 3 0;
#X connect 29 0 45 0;
#X connect 29 0 51 0;
#X connect 30 0 63 0;
#X connect 31 0 6 0;
#X connect 32 0 27 2;
#X connect 33 0 27 3;
#X connect 34 0 11 1;
#X connect 34 0 43 1;
#X connect 34 0 65 0;
#X connect 35 0 0 0;
#X connect 36 0 35 0;
#X connect 38 0 35 0;
#X connect 40 0 38 0;
#X connect 40 0 59 0;
#X connect 42 0 0 0;
#X connect 43 0 67 0;
#X connect 44 0 47 0;
#X connect 45 0 46 0;
#X connect 46 0 30 0;
#X connect 47 0 46 0;
#X connect 48 0 34 0;
#X connect 48 0 52 0;
#X connect 49 0 48 0;
#X connect 51 0 72 0;
#X connect 52 0 53 0;
#X connect 53 0 51 1;
#X connect 54 0 35 0;
#X connect 57 0 35 0;
#X connect 58 0 40 0;
#X connect 58 0 59 0;
#X connect 58 0 60 0;
#X connect 58 0 61 0;
#X connect 58 0 67 0;
#X connect 59 0 54 0;
#X connect 59 0 60 0;
#X connect 60 0 57 0;
#X connect 60 0 61 0;
#X connect 61 0 42 0;
#X connect 62 0 52 0;
#X connect 63 0 73 0;
#X connect 64 0 63 1;
#X connect 65 0 58 0;
#X connect 66 0 62 0;
#X connect 67 0 36 0;
#X connect 67 0 40 0;
#X connect 68 0 35 0;
#X connect 69 0 53 0;
#X connect 70 0 64 0;
#X connect 71 0 64 0;
#X connect 72 0 70 0;
#X connect 72 1 69 0;
#X connect 72 2 11 0;
#X connect 73 0 71 0;
#X connect 73 1 43 0;
#X connect 73 1 11 0;
#X connect 74 0 78 0;
#X connect 74 0 77 0;
#X connect 74 0 76 0;
#X connect 74 0 75 0;
#X connect 75 0 7 0;
#X connect 76 0 8 0;
#X connect 77 0 32 0;
#X connect 78 0 33 0;
